<svg width="337" height="354" viewBox="0 0 337 354" fill="none" xmlns="http://www.w3.org/2000/svg">
<g clip-path="url(#clip0)">
<path d="M244.847 147.788C266.247 147.788 283.595 130.44 283.595 109.04C283.595 87.6393 266.247 70.291 244.847 70.291C223.446 70.291 206.098 87.6393 206.098 109.04C206.098 130.44 223.446 147.788 244.847 147.788Z" fill="#FCDDEC"/>
<path d="M247.694 348.576V259.512C247.695 258.264 248.192 257.068 249.074 256.186C249.956 255.303 251.152 254.807 252.4 254.806H263.086C264.333 254.807 265.53 255.303 266.412 256.186C267.294 257.068 267.79 258.264 267.792 259.512V348.576C267.79 349.824 267.294 351.02 266.412 351.902C265.53 352.784 264.333 353.28 263.086 353.282H252.4C251.152 353.28 249.956 352.784 249.074 351.902C248.192 351.02 247.695 349.824 247.694 348.576Z" fill="#A5A6F6"/>
<path d="M225.11 348.576V259.512C225.112 258.264 225.608 257.068 226.49 256.186C227.373 255.303 228.569 254.807 229.816 254.806H240.503C241.75 254.807 242.947 255.303 243.829 256.186C244.711 257.068 245.207 258.264 245.209 259.512V348.576C245.207 349.824 244.711 351.02 243.829 351.902C242.947 352.784 241.75 353.28 240.503 353.282H229.816C228.569 353.28 227.373 352.784 226.49 351.902C225.608 351.02 225.112 349.824 225.11 348.576Z" fill="#A5A6F6"/>
<path d="M216.304 264.914V186.037C216.304 178.35 219.357 170.979 224.793 165.543C230.228 160.108 237.6 157.054 245.287 157.054H245.287C252.974 157.054 260.346 160.108 265.781 165.543C271.216 170.979 274.27 178.35 274.27 186.037V264.914C274.27 266.162 273.774 267.359 272.892 268.242C272.009 269.125 270.812 269.62 269.564 269.62H221.01C219.762 269.62 218.565 269.125 217.682 268.242C216.8 267.359 216.304 266.162 216.304 264.914Z" fill="#7879F1"/>
<path d="M212.125 126.168L212.165 124.72C209.471 124.645 207.096 124.476 205.312 123.173C204.806 122.782 204.39 122.287 204.092 121.721C203.795 121.156 203.623 120.532 203.587 119.894C203.556 119.504 203.615 119.112 203.76 118.749C203.905 118.385 204.131 118.06 204.422 117.798C205.607 116.798 207.513 117.122 208.902 117.759L210.1 118.308L207.803 101.518L206.368 101.715L208.322 115.997C206.435 115.442 204.685 115.681 203.487 116.693C203.027 117.094 202.666 117.597 202.433 118.161C202.199 118.725 202.099 119.336 202.14 119.945C202.183 120.803 202.412 121.64 202.812 122.4C203.212 123.16 203.774 123.822 204.457 124.342C206.75 126.018 209.73 126.101 212.125 126.168Z" fill="#2F2E41"/>
<path d="M223.89 102.946H216.091V104.394H223.89V102.946Z" fill="#2F2E41"/>
<path d="M260.175 264.86C259.719 264.442 259.351 263.938 259.09 263.377C258.83 262.816 258.684 262.209 258.661 261.592L254.971 172.605C254.946 171.987 255.042 171.371 255.255 170.791C255.467 170.21 255.792 169.678 256.211 169.223C256.629 168.768 257.133 168.4 257.694 168.141C258.254 167.881 258.861 167.734 259.478 167.708L270.155 167.265C271.402 167.215 272.618 167.661 273.536 168.506C274.454 169.351 274.999 170.526 275.052 171.772L278.741 260.76C278.792 262.006 278.345 263.222 277.5 264.14C276.655 265.058 275.481 265.603 274.234 265.656L263.557 266.099C263.217 266.113 262.876 266.091 262.54 266.033C261.656 265.877 260.835 265.47 260.175 264.86Z" fill="#FCDDEC"/>
<path d="M273.8 204.632H256.424C255.176 204.631 253.98 204.135 253.098 203.252C252.215 202.37 251.719 201.174 251.718 199.926V175.31C251.718 171.757 253.129 168.351 255.641 165.839C258.153 163.327 261.56 161.916 265.112 161.916C268.664 161.916 272.071 163.327 274.583 165.839C277.095 168.351 278.506 171.757 278.506 175.31V199.926C278.505 201.174 278.008 202.37 277.126 203.252C276.244 204.135 275.048 204.631 273.8 204.632Z" fill="#A5A6F6"/>
<path d="M162.215 237.61L155.403 229.377C154.608 228.415 154.228 227.177 154.346 225.935C154.463 224.693 155.068 223.548 156.028 222.751L224.651 165.977C225.613 165.182 226.851 164.802 228.093 164.919C229.336 165.036 230.48 165.642 231.277 166.603L238.088 174.836C238.482 175.313 238.779 175.862 238.96 176.452C239.142 177.043 239.206 177.664 239.148 178.279C239.09 178.894 238.911 179.492 238.622 180.038C238.332 180.584 237.938 181.068 237.462 181.462L168.841 238.236C168.014 238.919 166.98 239.3 165.907 239.316C164.835 239.331 163.79 238.981 162.944 238.322C162.676 238.112 162.432 237.873 162.215 237.61Z" fill="#FCDDEC"/>
<path d="M212.82 200.63L201.813 187.185C201.024 186.219 200.65 184.979 200.774 183.737C200.898 182.496 201.509 181.354 202.473 180.563L221.521 164.969C222.882 163.854 224.449 163.019 226.133 162.51C227.817 162.001 229.585 161.829 231.335 162.003C233.086 162.177 234.785 162.695 236.335 163.526C237.886 164.357 239.257 165.485 240.372 166.846C241.486 168.208 242.321 169.775 242.83 171.459C243.339 173.143 243.51 174.911 243.336 176.662C243.161 178.412 242.643 180.111 241.812 181.661C240.98 183.212 239.852 184.583 238.49 185.697L219.443 201.291C218.476 202.08 217.237 202.454 215.995 202.33C214.753 202.206 213.612 201.595 212.82 200.63Z" fill="#A5A6F6"/>
<path d="M254.561 115.6C256.579 112.229 258.158 108.515 257.408 104.521C256.739 100.955 254.172 98.1775 250.482 97.813C248.259 97.5934 246.048 98.1868 243.877 98.5732C242.097 98.8857 240.289 99.0028 238.484 98.9225C234.853 98.7573 231.293 97.8547 228.022 96.2696C224.701 94.7156 221.752 92.4687 219.372 89.6799C216.992 86.8911 215.237 83.6251 214.225 80.1014C212.022 72.0838 213.657 62.9795 218.887 56.4533L217.072 55.9741L219.436 63.7386C219.482 63.8978 219.563 64.0445 219.674 64.1677C219.785 64.2909 219.923 64.3873 220.076 64.4498C220.23 64.5122 220.395 64.5391 220.561 64.5283C220.726 64.5176 220.887 64.4695 221.031 64.3876C225.314 61.6811 230.103 59.8731 235.106 59.0732C240.109 58.2733 245.223 58.4982 250.137 59.7342C252.913 60.4318 255.595 61.4633 258.123 62.8061C259.357 63.4619 260.456 61.5877 259.22 60.9306C254.471 58.4533 249.269 56.965 243.928 56.5559C238.588 56.1468 233.22 56.8253 228.149 58.5504C225.261 59.5347 222.503 60.8649 219.935 62.5121L221.53 63.1612L219.167 55.3966C219.114 55.2151 219.015 55.0503 218.88 54.9182C218.745 54.7862 218.578 54.6915 218.395 54.6432C218.212 54.595 218.02 54.5948 217.837 54.6429C217.654 54.691 217.487 54.7855 217.352 54.9174C214.919 58.003 213.136 61.5491 212.111 65.3421C211.085 69.1351 210.839 73.0964 211.385 76.9873C211.913 80.8223 213.245 84.5024 215.295 87.7863C217.345 91.0702 220.066 93.8837 223.279 96.0424C226.49 98.2093 230.098 99.7181 233.895 100.481C237.692 101.245 241.602 101.247 245.401 100.489C247.526 100.081 249.937 99.4958 252.022 100.386C252.779 100.751 253.446 101.278 253.975 101.929C254.505 102.581 254.885 103.341 255.088 104.156C256.27 108.161 254.259 111.964 252.205 115.294L254.561 115.6Z" fill="#2F2E41"/>
<path d="M235.15 191.783L235.123 191.783C234.718 191.782 234.326 191.643 234.01 191.389C233.695 191.136 233.475 190.783 233.386 190.388L233.528 160.219C233.436 159.811 233.486 159.383 233.671 159.008C233.855 158.632 234.163 158.331 234.542 158.153C239.793 155.687 245.22 155.355 251.131 157.142C251.583 157.276 251.966 157.581 252.196 157.992C252.427 158.404 252.488 158.889 252.367 159.344L236.898 190.436C236.8 190.824 236.574 191.168 236.257 191.412C235.94 191.657 235.55 191.787 235.15 191.783Z" fill="#5D38E0"/>
<path d="M336.276 353.779H156.721C156.529 353.779 156.345 353.702 156.209 353.567C156.073 353.431 155.997 353.247 155.997 353.055C155.997 352.863 156.073 352.678 156.209 352.543C156.345 352.407 156.529 352.331 156.721 352.331H336.276C336.468 352.331 336.652 352.407 336.788 352.543C336.924 352.678 337 352.863 337 353.055C337 353.247 336.924 353.431 336.788 353.567C336.652 353.702 336.468 353.779 336.276 353.779Z" fill="#3F3D56"/>
<path d="M160.268 249.372H25.6017C23.7782 249.37 22.0299 248.645 20.7405 247.355C19.451 246.066 18.7257 244.317 18.7236 242.494V142.58C18.7257 140.757 19.451 139.008 20.7405 137.719C22.0299 136.43 23.7782 135.704 25.6017 135.702H160.268C162.091 135.704 163.84 136.43 165.129 137.719C166.419 139.008 167.144 140.757 167.146 142.58V242.494C167.144 244.317 166.419 246.066 165.129 247.355C163.84 248.645 162.091 249.37 160.268 249.372Z" fill="#E6E6E6"/>
<path d="M160.268 249.372H25.6017C23.7782 249.37 22.0299 248.645 20.7405 247.355C19.451 246.066 18.7257 244.317 18.7236 242.494V142.58C18.7257 140.757 19.451 139.008 20.7405 137.719C22.0299 136.43 23.7782 135.704 25.6017 135.702H160.268C162.091 135.704 163.84 136.43 165.129 137.719C166.419 139.008 167.144 140.757 167.146 142.58V242.494C167.144 244.317 166.419 246.066 165.129 247.355C163.84 248.645 162.091 249.37 160.268 249.372ZM25.6017 137.874C24.3541 137.876 23.1579 138.372 22.2756 139.254C21.3934 140.136 20.8971 141.333 20.8957 142.58V242.494C20.8971 243.742 21.3934 244.938 22.2756 245.82C23.1579 246.702 24.3541 247.199 25.6017 247.2H160.268C161.516 247.199 162.712 246.702 163.594 245.82C164.476 244.938 164.973 243.742 164.974 242.494V142.58C164.973 141.333 164.476 140.136 163.594 139.254C162.712 138.372 161.516 137.876 160.268 137.874H25.6017Z" fill="#3F3D56"/>
<path d="M145.063 153.44H40.8058C40.2298 153.44 39.6773 153.211 39.27 152.804C38.8626 152.397 38.6338 151.844 38.6338 151.268C38.6338 150.692 38.8626 150.14 39.27 149.732C39.6773 149.325 40.2298 149.096 40.8058 149.096H145.063C145.64 149.096 146.192 149.325 146.599 149.732C147.007 150.14 147.236 150.692 147.236 151.268C147.236 151.844 147.007 152.397 146.599 152.804C146.192 153.211 145.64 153.44 145.063 153.44Z" fill="#3F3D56"/>
<path d="M145.426 165.387H41.1681C40.5921 165.387 40.0396 165.158 39.6323 164.75C39.2249 164.343 38.9961 163.791 38.9961 163.215C38.9961 162.638 39.2249 162.086 39.6323 161.679C40.0396 161.271 40.5921 161.042 41.1681 161.042H145.426C146.002 161.042 146.554 161.271 146.962 161.679C147.369 162.086 147.598 162.638 147.598 163.215C147.598 163.791 147.369 164.343 146.962 164.75C146.554 165.158 146.002 165.387 145.426 165.387Z" fill="#3F3D56"/>
<path d="M145.788 177.333H95.8307C95.2547 177.333 94.7022 177.104 94.2949 176.697C93.8875 176.289 93.6587 175.737 93.6587 175.161C93.6587 174.585 93.8875 174.032 94.2949 173.625C94.7022 173.218 95.2547 172.989 95.8307 172.989H145.788C146.364 172.989 146.916 173.218 147.323 173.625C147.731 174.032 147.96 174.585 147.96 175.161C147.96 175.737 147.731 176.289 147.323 176.697C146.916 177.104 146.364 177.333 145.788 177.333Z" fill="#3F3D56"/>
<path d="M146.15 189.279H96.193C95.617 189.279 95.0645 189.05 94.6572 188.642C94.2498 188.235 94.021 187.683 94.021 187.107C94.021 186.531 94.2498 185.978 94.6572 185.571C95.0645 185.163 95.617 184.935 96.193 184.935H146.15C146.726 184.935 147.278 185.163 147.686 185.571C148.093 185.978 148.322 186.531 148.322 187.107C148.322 187.683 148.093 188.235 147.686 188.642C147.278 189.05 146.726 189.279 146.15 189.279Z" fill="#3F3D56"/>
<path d="M146.512 201.225H96.5548C95.9788 201.225 95.4263 200.996 95.019 200.589C94.6116 200.181 94.3828 199.629 94.3828 199.053C94.3828 198.477 94.6116 197.924 95.019 197.517C95.4263 197.11 95.9788 196.881 96.5548 196.881H146.512C147.088 196.881 147.64 197.11 148.048 197.517C148.455 197.924 148.684 198.477 148.684 199.053C148.684 199.629 148.455 200.181 148.048 200.589C147.64 200.996 147.088 201.225 146.512 201.225Z" fill="#3F3D56"/>
<path d="M146.874 213.171H42.6159C42.0398 213.171 41.4874 212.942 41.08 212.535C40.6727 212.128 40.4438 211.575 40.4438 210.999C40.4438 210.423 40.6727 209.871 41.08 209.463C41.4874 209.056 42.0398 208.827 42.6159 208.827H146.874C147.45 208.827 148.002 209.056 148.409 209.463C148.817 209.871 149.046 210.423 149.046 210.999C149.046 211.575 148.817 212.128 148.409 212.535C148.002 212.942 147.45 213.171 146.874 213.171Z" fill="#3F3D56"/>
<path d="M147.236 225.118H42.9782C42.4021 225.118 41.8497 224.889 41.4423 224.481C41.035 224.074 40.8062 223.522 40.8062 222.945C40.8062 222.369 41.035 221.817 41.4423 221.41C41.8497 221.002 42.4021 220.773 42.9782 220.773H147.236C147.812 220.773 148.364 221.002 148.772 221.41C149.179 221.817 149.408 222.369 149.408 222.945C149.408 223.522 149.179 224.074 148.772 224.481C148.364 224.889 147.812 225.118 147.236 225.118Z" fill="#3F3D56"/>
<path d="M147.598 237.064H43.34C42.7639 237.064 42.2115 236.835 41.8042 236.428C41.3968 236.02 41.168 235.468 41.168 234.892C41.168 234.316 41.3968 233.763 41.8042 233.356C42.2115 232.949 42.7639 232.72 43.34 232.72H147.598C148.174 232.72 148.726 232.949 149.134 233.356C149.541 233.763 149.77 234.316 149.77 234.892C149.77 235.468 149.541 236.02 149.134 236.428C148.726 236.835 148.174 237.064 147.598 237.064Z" fill="#3F3D56"/>
<path d="M193.468 287.803L138.736 275.997L138.025 275.844C137.663 275.765 137.286 275.79 136.937 275.916C136.588 276.042 136.283 276.264 136.055 276.556C135.826 276.849 135.686 277.199 135.648 277.568C135.61 277.937 135.677 278.309 135.842 278.641L157.573 322.771C157.713 323.055 157.92 323.3 158.175 323.487C158.431 323.674 158.727 323.797 159.04 323.846C159.354 323.895 159.675 323.866 159.975 323.763C160.275 323.66 160.546 323.486 160.764 323.255L175.858 307.34C175.965 307.224 176.095 307.131 176.24 307.068C176.385 307.004 176.542 306.972 176.7 306.972C176.915 306.969 177.126 307.024 177.312 307.132C177.498 307.24 177.651 307.397 177.755 307.585L180.846 313.304C181.044 313.685 181.363 313.989 181.753 314.168C182.143 314.347 182.582 314.39 183 314.291L183.015 314.287C183.438 314.198 183.818 313.969 184.095 313.637C184.372 313.305 184.529 312.89 184.542 312.458L185.161 299.258C185.168 299.093 185.209 298.931 185.282 298.783C185.359 298.637 185.465 298.507 185.592 298.4L194.3 291.252C194.586 291.017 194.8 290.706 194.918 290.355C195.036 290.004 195.052 289.627 194.965 289.267C194.878 288.907 194.692 288.579 194.427 288.32C194.163 288.061 193.83 287.882 193.468 287.803L193.468 287.803ZM193.803 290.644L185.095 297.792C184.982 297.884 184.879 297.988 184.788 298.102L138.637 277.172C138.597 277.153 138.554 277.138 138.51 277.127C138.332 277.081 138.144 277.099 137.978 277.177C137.811 277.256 137.678 277.39 137.6 277.556C137.522 277.723 137.504 277.911 137.551 278.089C137.597 278.267 137.704 278.423 137.853 278.531L175.8 306.405C175.607 306.505 175.434 306.638 175.286 306.797L160.192 322.712C160.061 322.85 159.899 322.954 159.719 323.015C159.539 323.077 159.347 323.094 159.159 323.066C158.971 323.038 158.793 322.964 158.64 322.852C158.486 322.74 158.362 322.592 158.278 322.422L136.547 278.292C136.45 278.092 136.41 277.869 136.434 277.649C136.457 277.428 136.542 277.219 136.678 277.044C136.815 276.869 136.998 276.736 137.206 276.66C137.414 276.584 137.64 276.569 137.857 276.615L138.585 276.772L193.3 288.574C193.517 288.621 193.717 288.729 193.876 288.884C194.035 289.039 194.147 289.236 194.2 289.452C194.252 289.668 194.243 289.894 194.173 290.105C194.102 290.316 193.974 290.503 193.803 290.644V290.644Z" fill="#E6E6E6"/>
<path d="M193.468 287.803L138.736 275.997L138.025 275.844C137.663 275.765 137.286 275.79 136.937 275.916C136.588 276.042 136.283 276.264 136.055 276.556C135.826 276.849 135.686 277.199 135.648 277.568C135.61 277.937 135.677 278.309 135.842 278.641L157.573 322.771C157.713 323.055 157.92 323.3 158.175 323.487C158.431 323.674 158.727 323.797 159.04 323.846C159.354 323.895 159.675 323.866 159.975 323.763C160.275 323.66 160.546 323.486 160.764 323.255L175.858 307.34C175.965 307.224 176.095 307.131 176.24 307.068C176.385 307.004 176.542 306.972 176.7 306.972C176.915 306.969 177.126 307.024 177.312 307.132C177.498 307.24 177.651 307.397 177.755 307.585L180.846 313.304C181.044 313.685 181.363 313.989 181.753 314.168C182.143 314.347 182.582 314.39 183 314.291L183.015 314.287C183.438 314.198 183.818 313.969 184.095 313.637C184.372 313.305 184.529 312.89 184.542 312.458L185.161 299.258C185.168 299.093 185.209 298.931 185.282 298.783C185.359 298.637 185.465 298.507 185.592 298.4L194.3 291.252C194.586 291.017 194.8 290.706 194.918 290.355C195.036 290.004 195.052 289.627 194.965 289.267C194.878 288.907 194.692 288.579 194.427 288.32C194.163 288.061 193.83 287.882 193.468 287.803L193.468 287.803ZM193.803 290.644L185.095 297.792C184.982 297.884 184.879 297.988 184.788 298.102C184.707 298.204 184.637 298.314 184.579 298.431C184.518 298.55 184.47 298.676 184.436 298.805L184.437 298.809C184.401 298.944 184.38 299.082 184.375 299.222L183.756 312.422C183.751 312.681 183.657 312.932 183.491 313.131C183.325 313.33 183.096 313.467 182.841 313.519L182.834 313.521C182.583 313.583 182.319 313.559 182.084 313.452C181.849 313.345 181.656 313.162 181.538 312.933L178.446 307.21C178.286 306.916 178.055 306.667 177.772 306.488C177.49 306.308 177.166 306.204 176.832 306.185L176.828 306.185C176.783 306.183 176.738 306.181 176.694 306.183C176.383 306.183 176.076 306.259 175.8 306.405C175.607 306.505 175.434 306.638 175.286 306.797L160.192 322.712C160.061 322.85 159.899 322.954 159.719 323.015C159.54 323.077 159.347 323.094 159.159 323.066C158.971 323.037 158.793 322.964 158.64 322.852C158.486 322.74 158.362 322.592 158.278 322.422L136.547 278.292C136.45 278.092 136.41 277.869 136.434 277.649C136.457 277.428 136.542 277.219 136.678 277.044C136.815 276.869 136.998 276.736 137.206 276.66C137.414 276.584 137.64 276.569 137.857 276.615L138.585 276.772L193.3 288.574C193.517 288.621 193.717 288.729 193.876 288.884C194.035 289.039 194.147 289.236 194.2 289.452C194.252 289.668 194.243 289.894 194.173 290.105C194.102 290.316 193.974 290.503 193.803 290.644V290.644Z" fill="#CCCCCC"/>
<path d="M184.963 298.18L184.638 298.897L184.437 298.809L184.436 298.805L138.321 277.895L176.828 306.185L176.832 306.184L176.934 306.263L176.47 306.898L175.8 306.405L137.853 278.53C137.704 278.423 137.597 278.267 137.551 278.089C137.505 277.911 137.522 277.723 137.6 277.556C137.678 277.39 137.811 277.256 137.978 277.177C138.144 277.099 138.332 277.081 138.51 277.127C138.554 277.138 138.597 277.153 138.637 277.171L184.788 298.102L184.963 298.18Z" fill="#CCCCCC"/>
<path d="M54.5455 198.273H49.0909C48.7293 198.273 48.3824 198.129 48.1267 197.873C47.8709 197.618 47.7273 197.271 47.7273 196.909V191.455C47.7273 191.093 47.5836 190.746 47.3279 190.49C47.0721 190.235 46.7253 190.091 46.3636 190.091C46.002 190.091 45.6551 190.235 45.3994 190.49C45.1437 190.746 45 191.093 45 191.455V196.909C45 197.994 45.431 199.035 46.1982 199.802C46.9654 200.569 48.0059 201 49.0909 201H54.5455C54.9071 201 55.254 200.856 55.5097 200.601C55.7654 200.345 55.9091 199.998 55.9091 199.636C55.9091 199.275 55.7654 198.928 55.5097 198.672C55.254 198.416 54.9071 198.273 54.5455 198.273ZM73.6364 190.091C73.2747 190.091 72.9279 190.235 72.6721 190.49C72.4164 190.746 72.2727 191.093 72.2727 191.455V196.909C72.2727 197.271 72.1291 197.618 71.8733 197.873C71.6176 198.129 71.2708 198.273 70.9091 198.273H65.4545C65.0929 198.273 64.746 198.416 64.4903 198.672C64.2346 198.928 64.0909 199.275 64.0909 199.636C64.0909 199.998 64.2346 200.345 64.4903 200.601C64.746 200.856 65.0929 201 65.4545 201H70.9091C71.9941 201 73.0346 200.569 73.8018 199.802C74.569 199.035 75 197.994 75 196.909V191.455C75 191.093 74.8563 190.746 74.6006 190.49C74.3449 190.235 73.998 190.091 73.6364 190.091ZM70.9091 171H65.4545C65.0929 171 64.746 171.144 64.4903 171.399C64.2346 171.655 64.0909 172.002 64.0909 172.364C64.0909 172.725 64.2346 173.072 64.4903 173.328C64.746 173.584 65.0929 173.727 65.4545 173.727H70.9091C71.2708 173.727 71.6176 173.871 71.8733 174.127C72.1291 174.382 72.2727 174.729 72.2727 175.091V180.545C72.2727 180.907 72.4164 181.254 72.6721 181.51C72.9279 181.765 73.2747 181.909 73.6364 181.909C73.998 181.909 74.3449 181.765 74.6006 181.51C74.8563 181.254 75 180.907 75 180.545V175.091C75 174.006 74.569 172.965 73.8018 172.198C73.0346 171.431 71.9941 171 70.9091 171ZM46.3636 181.909C46.7253 181.909 47.0721 181.765 47.3279 181.51C47.5836 181.254 47.7273 180.907 47.7273 180.545V175.091C47.7273 174.729 47.8709 174.382 48.1267 174.127C48.3824 173.871 48.7293 173.727 49.0909 173.727H54.5455C54.9071 173.727 55.254 173.584 55.5097 173.328C55.7654 173.072 55.9091 172.725 55.9091 172.364C55.9091 172.002 55.7654 171.655 55.5097 171.399C55.254 171.144 54.9071 171 54.5455 171H49.0909C48.0059 171 46.9654 171.431 46.1982 172.198C45.431 172.965 45 174.006 45 175.091V180.545C45 180.907 45.1437 181.254 45.3994 181.51C45.6551 181.765 46.002 181.909 46.3636 181.909ZM57.2727 176.455H51.8182C51.4565 176.455 51.1097 176.598 50.8539 176.854C50.5982 177.11 50.4545 177.457 50.4545 177.818V183.273C50.4545 183.634 50.5982 183.981 50.8539 184.237C51.1097 184.493 51.4565 184.636 51.8182 184.636H57.2727C57.6344 184.636 57.9812 184.493 58.237 184.237C58.4927 183.981 58.6364 183.634 58.6364 183.273V177.818C58.6364 177.457 58.4927 177.11 58.237 176.854C57.9812 176.598 57.6344 176.455 57.2727 176.455ZM55.9091 181.909H53.1818V179.182H55.9091V181.909ZM62.7273 184.636H68.1818C68.5435 184.636 68.8903 184.493 69.1461 184.237C69.4018 183.981 69.5455 183.634 69.5455 183.273V177.818C69.5455 177.457 69.4018 177.11 69.1461 176.854C68.8903 176.598 68.5435 176.455 68.1818 176.455H62.7273C62.3656 176.455 62.0188 176.598 61.763 176.854C61.5073 177.11 61.3636 177.457 61.3636 177.818V183.273C61.3636 183.634 61.5073 183.981 61.763 184.237C62.0188 184.493 62.3656 184.636 62.7273 184.636ZM64.0909 179.182H66.8182V181.909H64.0909V179.182ZM57.2727 187.364H51.8182C51.4565 187.364 51.1097 187.507 50.8539 187.763C50.5982 188.019 50.4545 188.366 50.4545 188.727V194.182C50.4545 194.543 50.5982 194.89 50.8539 195.146C51.1097 195.402 51.4565 195.545 51.8182 195.545H57.2727C57.6344 195.545 57.9812 195.402 58.237 195.146C58.4927 194.89 58.6364 194.543 58.6364 194.182V188.727C58.6364 188.366 58.4927 188.019 58.237 187.763C57.9812 187.507 57.6344 187.364 57.2727 187.364ZM55.9091 192.818H53.1818V190.091H55.9091V192.818ZM62.7273 191.455C63.0889 191.455 63.4358 191.311 63.6915 191.055C63.9472 190.799 64.0909 190.453 64.0909 190.091C64.4526 190.091 64.7994 189.947 65.0551 189.692C65.3109 189.436 65.4545 189.089 65.4545 188.727C65.4545 188.366 65.3109 188.019 65.0551 187.763C64.7994 187.507 64.4526 187.364 64.0909 187.364H62.7273C62.3656 187.364 62.0188 187.507 61.763 187.763C61.5073 188.019 61.3636 188.366 61.3636 188.727V190.091C61.3636 190.453 61.5073 190.799 61.763 191.055C62.0188 191.311 62.3656 191.455 62.7273 191.455ZM68.1818 187.364C67.8202 187.364 67.4733 187.507 67.2176 187.763C66.9619 188.019 66.8182 188.366 66.8182 188.727V192.818C66.4565 192.818 66.1097 192.962 65.8539 193.218C65.5982 193.473 65.4545 193.82 65.4545 194.182C65.4545 194.543 65.5982 194.89 65.8539 195.146C66.1097 195.402 66.4565 195.545 66.8182 195.545H68.1818C68.5435 195.545 68.8903 195.402 69.1461 195.146C69.4018 194.89 69.5455 194.543 69.5455 194.182V188.727C69.5455 188.366 69.4018 188.019 69.1461 187.763C68.8903 187.507 68.5435 187.364 68.1818 187.364ZM62.7273 192.818C62.4576 192.818 62.1939 192.898 61.9697 193.048C61.7454 193.198 61.5706 193.411 61.4674 193.66C61.3642 193.909 61.3372 194.183 61.3898 194.448C61.4425 194.712 61.5723 194.955 61.763 195.146C61.9537 195.337 62.1967 195.467 62.4612 195.519C62.7258 195.572 62.9999 195.545 63.2491 195.442C63.4983 195.338 63.7113 195.164 63.8611 194.939C64.0109 194.715 64.0909 194.452 64.0909 194.182C64.0909 193.82 63.9472 193.473 63.6915 193.218C63.4358 192.962 63.0889 192.818 62.7273 192.818Z" fill="#3F3D56"/>
</g>
<path d="M80.5519 12.0046C80.1901 12.0833 79.8577 12.2623 79.593 12.5212C79.3282 12.78 79.1417 13.1083 79.0549 13.4683C78.9681 13.8282 78.9845 14.2053 79.1022 14.5564C79.2199 14.9075 79.4341 15.2184 79.7203 15.4533L88.428 22.6013C88.5553 22.7077 88.6607 22.8378 88.7384 22.9844C88.8107 23.1326 88.8518 23.294 88.8592 23.4587L89.4785 36.659C89.4909 37.0909 89.6481 37.5062 89.9249 37.838C90.2017 38.1698 90.5821 38.3989 91.0048 38.4885L91.0202 38.4919C91.4379 38.5913 91.8768 38.5482 92.2671 38.3693C92.6574 38.1905 92.9767 37.8861 93.174 37.5048L96.2656 31.7864C96.3693 31.5981 96.5223 31.4416 96.7081 31.3335C96.8939 31.2255 97.1056 31.17 97.3205 31.173C97.4786 31.1729 97.6351 31.2055 97.78 31.2688C97.9249 31.3321 98.0551 31.4247 98.1625 31.5408L113.256 47.4559C113.474 47.6869 113.745 47.8615 114.045 47.9645C114.345 48.0675 114.666 48.0958 114.98 48.047C115.293 47.9985 115.589 47.8756 115.845 47.6886C116.1 47.5017 116.307 47.2561 116.448 46.9725L138.178 2.8422C138.343 2.50994 138.41 2.13806 138.372 1.76931C138.335 1.40055 138.194 1.04988 137.966 0.757661C137.738 0.465447 137.432 0.243532 137.083 0.117434C136.735 -0.00866294 136.358 -0.0337998 135.995 0.0448741L135.284 0.197949L80.5519 12.0046H80.5519ZM80.2176 14.8456C80.0461 14.7042 79.9179 14.5173 79.8476 14.3065C79.7774 14.0956 79.7679 13.8692 79.8204 13.6531C79.8728 13.4371 79.985 13.2403 80.1441 13.0851C80.3033 12.9299 80.5029 12.8226 80.7201 12.7756L135.435 0.973177L136.163 0.815816C136.38 0.769778 136.606 0.785613 136.814 0.861508C137.023 0.937404 137.206 1.0703 137.342 1.24508C137.479 1.41986 137.564 1.62951 137.587 1.85009C137.61 2.07067 137.571 2.29335 137.474 2.49274L115.743 46.6231C115.658 46.7935 115.534 46.941 115.381 47.0532C115.227 47.1653 115.049 47.2387 114.861 47.2672C114.673 47.2957 114.481 47.2783 114.301 47.2167C114.121 47.155 113.959 47.0508 113.828 46.913L98.7342 30.998C98.5867 30.8388 98.4129 30.7062 98.2203 30.6061L136.167 2.73177C136.316 2.62442 136.423 2.4683 136.469 2.2904C136.516 2.11249 136.498 1.92399 136.42 1.75751C136.343 1.59102 136.209 1.45702 136.043 1.37867C135.876 1.30031 135.688 1.28254 135.51 1.32842C135.466 1.33907 135.424 1.35398 135.383 1.37292L89.2318 22.3033C89.1416 22.1889 89.0387 22.085 88.9253 21.9936L80.2176 14.8457V14.8456Z" fill="#E6E6E6"/>
<path d="M80.5519 12.0046C80.1901 12.0833 79.8577 12.2623 79.593 12.5212C79.3282 12.78 79.1417 13.1083 79.0549 13.4683C78.9681 13.8282 78.9845 14.2053 79.1022 14.5564C79.2199 14.9075 79.4341 15.2184 79.7203 15.4533L88.428 22.6013C88.5553 22.7077 88.6607 22.8378 88.7384 22.9844C88.8107 23.1326 88.8518 23.294 88.8592 23.4587L89.4785 36.659C89.4909 37.0909 89.6481 37.5062 89.9249 37.838C90.2017 38.1698 90.5821 38.3989 91.0048 38.4885L91.0202 38.4919C91.4379 38.5913 91.8768 38.5482 92.2671 38.3693C92.6574 38.1905 92.9767 37.8861 93.174 37.5048L96.2656 31.7864C96.3693 31.5981 96.5223 31.4416 96.7081 31.3335C96.8939 31.2255 97.1056 31.17 97.3205 31.173C97.4786 31.1729 97.6351 31.2055 97.78 31.2688C97.9249 31.3321 98.0551 31.4247 98.1625 31.5408L113.256 47.4559C113.474 47.6869 113.745 47.8615 114.045 47.9645C114.345 48.0675 114.666 48.0958 114.98 48.047C115.293 47.9985 115.589 47.8756 115.845 47.6886C116.1 47.5017 116.307 47.2561 116.448 46.9725L138.178 2.8422C138.343 2.50994 138.41 2.13806 138.372 1.76931C138.335 1.40055 138.194 1.04988 137.966 0.757661C137.738 0.465447 137.432 0.243532 137.083 0.117434C136.735 -0.00866294 136.358 -0.0337998 135.995 0.0448741L135.284 0.197949L80.5519 12.0046H80.5519ZM80.2176 14.8456C80.0461 14.7042 79.9179 14.5173 79.8476 14.3065C79.7774 14.0956 79.7679 13.8692 79.8204 13.6531C79.8728 13.4371 79.985 13.2403 80.1441 13.0851C80.3033 12.9299 80.5029 12.8226 80.7201 12.7756L135.435 0.973177L136.163 0.815816C136.38 0.769778 136.606 0.785613 136.814 0.861508C137.023 0.937404 137.206 1.0703 137.342 1.24508C137.479 1.41986 137.564 1.62951 137.587 1.85009C137.61 2.07067 137.571 2.29335 137.474 2.49274L115.743 46.6231C115.658 46.7935 115.534 46.941 115.381 47.0531C115.227 47.1653 115.049 47.2387 114.861 47.2672C114.673 47.2957 114.481 47.2783 114.301 47.2166C114.121 47.155 113.959 47.0508 113.828 46.913L98.7342 30.998C98.5867 30.8388 98.4128 30.7062 98.2203 30.6061C97.9446 30.4604 97.6376 30.3841 97.3258 30.384C97.2819 30.3823 97.2371 30.3845 97.1921 30.3866L97.1884 30.3858C96.8542 30.4051 96.5306 30.5095 96.2481 30.689C95.9657 30.8686 95.7338 31.1173 95.5744 31.4117L92.4819 37.134C92.3639 37.3637 92.1717 37.5467 91.9366 37.6535C91.7014 37.7603 91.4371 37.7845 91.1865 37.7223L91.1788 37.7206C90.9245 37.6686 90.6954 37.5317 90.5292 37.3322C90.363 37.1328 90.2696 36.8827 90.2644 36.6232L89.6453 23.423C89.6402 23.2835 89.6194 23.145 89.5833 23.0101L89.5842 23.0063C89.55 22.8768 89.5021 22.7513 89.4414 22.6319C89.3834 22.5152 89.3131 22.4051 89.2318 22.3033C89.1415 22.1889 89.0387 22.085 88.9253 21.9936L80.2176 14.8456H80.2176Z" fill="#CCCCCC"/>
<path d="M89.2317 22.3035L135.383 1.37316C135.424 1.35422 135.466 1.33931 135.51 1.32866C135.688 1.28278 135.876 1.30055 136.042 1.3789C136.209 1.45726 136.342 1.59126 136.42 1.75775C136.498 1.92423 136.516 2.11269 136.469 2.29059C136.423 2.46849 136.316 2.62461 136.167 2.73196L98.2202 30.6063L97.5507 31.0992L97.0864 30.4643L97.1883 30.386L97.1921 30.3869L135.699 2.09624L89.5841 23.0065L89.5833 23.0103L89.3824 23.0989L89.0571 22.3819L89.2317 22.3035Z" fill="#CCCCCC"/>
<defs>
<clipPath id="clip0">
<rect width="420" height="329.779" fill="white" transform="translate(-83 24)"/>
</clipPath>
</defs>
</svg>
